<svg width="1200" height="630" viewBox="0 0 1200 630" fill="none" xmlns="http://www.w3.org/2000/svg">
<rect width="1200" height="630" fill="white"/>
<path d="M206.603 450L209.963 439.957H225.276L228.657 450H236.532L222.174 409.273H213.066L198.728 450H206.603ZM211.952 434.031L217.461 417.625H217.779L223.287 434.031H211.952ZM265.034 419.455H257.377L250.338 442.145H250.02L243 419.455H235.324L246.201 450H254.156L265.034 419.455ZM277.93 450.616C282.723 450.616 285.586 448.369 286.899 445.804H287.137V450H294.058V429.557C294.058 421.483 287.475 419.057 281.649 419.057C275.225 419.057 270.294 421.92 268.703 427.489L275.424 428.443C276.14 426.355 278.169 424.565 281.689 424.565C285.029 424.565 286.859 426.276 286.859 429.278V429.398C286.859 431.466 284.691 431.565 279.302 432.142C273.376 432.778 267.708 434.548 267.708 441.429C267.708 447.435 272.103 450.616 277.93 450.616ZM279.799 445.327C276.797 445.327 274.649 443.955 274.649 441.31C274.649 438.545 277.055 437.392 280.277 436.935C282.166 436.676 285.944 436.199 286.879 435.443V439.043C286.879 442.443 284.135 445.327 279.799 445.327ZM308.495 432.102C308.495 427.688 311.16 425.142 314.958 425.142C318.677 425.142 320.904 427.588 320.904 431.665V450H328.103V430.551C328.123 423.233 323.947 419.057 317.643 419.057C313.069 419.057 309.927 421.244 308.535 424.645H308.177V419.455H301.297V450H308.495V432.102ZM348.745 450.597C356.422 450.597 361.314 446.043 361.831 439.56H354.95C354.333 442.841 351.967 444.73 348.805 444.73C344.311 444.73 341.407 440.972 341.407 434.727C341.407 428.562 344.37 424.864 348.805 424.864C352.265 424.864 354.393 427.091 354.95 430.034H361.831C361.333 423.412 356.163 419.057 348.706 419.057C339.757 419.057 334.109 425.52 334.109 434.847C334.109 444.094 339.618 450.597 348.745 450.597ZM381.265 450.597C388.384 450.597 393.276 447.116 394.549 441.807L387.827 441.051C386.853 443.636 384.466 444.989 381.364 444.989C376.711 444.989 373.628 441.926 373.569 436.696H394.847V434.489C394.847 423.77 388.404 419.057 380.887 419.057C372.137 419.057 366.429 425.48 366.429 434.906C366.429 444.491 372.057 450.597 381.265 450.597ZM373.588 431.844C373.807 427.946 376.691 424.665 380.986 424.665C385.123 424.665 387.907 427.688 387.946 431.844H373.588ZM400.937 450H408.136V419.455H400.937V450ZM404.556 415.119C406.843 415.119 408.713 413.369 408.713 411.222C408.713 409.054 406.843 407.304 404.556 407.304C402.25 407.304 400.38 409.054 400.38 411.222C400.38 413.369 402.25 415.119 404.556 415.119ZM429.429 461.455H436.628V445.188H436.926C438.06 447.415 440.426 450.537 445.676 450.537C452.875 450.537 458.265 444.83 458.265 434.767C458.265 424.585 452.716 419.057 445.657 419.057C440.267 419.057 438.02 422.298 436.926 424.506H436.509V419.455H429.429V461.455ZM436.489 434.727C436.489 428.801 439.034 424.963 443.668 424.963C448.461 424.963 450.926 429.04 450.926 434.727C450.926 440.455 448.421 444.631 443.668 444.631C439.074 444.631 436.489 440.653 436.489 434.727ZM473.219 450.616C478.012 450.616 480.875 448.369 482.188 445.804H482.426V450H489.347V429.557C489.347 421.483 482.765 419.057 476.938 419.057C470.515 419.057 465.583 421.92 463.992 427.489L470.713 428.443C471.429 426.355 473.458 424.565 476.978 424.565C480.319 424.565 482.148 426.276 482.148 429.278V429.398C482.148 431.466 479.98 431.565 474.591 432.142C468.665 432.778 462.998 434.548 462.998 441.429C462.998 447.435 467.392 450.616 473.219 450.616ZM475.088 445.327C472.086 445.327 469.938 443.955 469.938 441.31C469.938 438.545 472.344 437.392 475.566 436.935C477.455 436.676 481.233 436.199 482.168 435.443V439.043C482.168 442.443 479.424 445.327 475.088 445.327ZM496.586 450H503.784V432.043C503.784 428.165 506.708 425.42 510.665 425.42C511.878 425.42 513.39 425.639 514.006 425.838V419.216C513.35 419.097 512.216 419.017 511.421 419.017C507.921 419.017 504.998 421.006 503.884 424.545H503.566V419.455H496.586V450ZM526.977 450.616C531.77 450.616 534.633 448.369 535.946 445.804H536.184V450H543.105V429.557C543.105 421.483 536.522 419.057 530.696 419.057C524.272 419.057 519.341 421.92 517.75 427.489L524.471 428.443C525.187 426.355 527.216 424.565 530.735 424.565C534.076 424.565 535.906 426.276 535.906 429.278V429.398C535.906 431.466 533.738 431.565 528.349 432.142C522.423 432.778 516.755 434.548 516.755 441.429C516.755 447.435 521.15 450.616 526.977 450.616ZM528.846 445.327C525.843 445.327 523.696 443.955 523.696 441.31C523.696 438.545 526.102 437.392 529.324 436.935C531.213 436.676 534.991 436.199 535.926 435.443V439.043C535.926 442.443 533.181 445.327 528.846 445.327ZM185.476 516.597C194.425 516.597 200.112 510.293 200.112 500.847C200.112 491.381 194.425 485.057 185.476 485.057C176.527 485.057 170.839 491.381 170.839 500.847C170.839 510.293 176.527 516.597 185.476 516.597ZM185.516 510.83C180.564 510.83 178.138 506.415 178.138 500.827C178.138 495.239 180.564 490.764 185.516 490.764C190.388 490.764 192.814 495.239 192.814 500.827C192.814 506.415 190.388 510.83 185.516 510.83ZM220.113 527.455H227.312V511.188H227.61C228.744 513.415 231.11 516.537 236.36 516.537C243.559 516.537 248.948 510.83 248.948 500.767C248.948 490.585 243.4 485.057 236.34 485.057C230.951 485.057 228.704 488.298 227.61 490.506H227.192V485.455H220.113V527.455ZM227.173 500.727C227.173 494.801 229.718 490.963 234.352 490.963C239.144 490.963 241.61 495.04 241.61 500.727C241.61 506.455 239.104 510.631 234.352 510.631C229.758 510.631 227.173 506.653 227.173 500.727ZM255.113 516H262.312V498.043C262.312 494.165 265.235 491.42 269.192 491.42C270.406 491.42 271.917 491.639 272.533 491.838V485.216C271.877 485.097 270.744 485.017 269.948 485.017C266.448 485.017 263.525 487.006 262.411 490.545H262.093V485.455H255.113V516ZM289.382 516.597C298.331 516.597 304.018 510.293 304.018 500.847C304.018 491.381 298.331 485.057 289.382 485.057C280.433 485.057 274.746 491.381 274.746 500.847C274.746 510.293 280.433 516.597 289.382 516.597ZM289.422 510.83C284.47 510.83 282.044 506.415 282.044 500.827C282.044 495.239 284.47 490.764 289.422 490.764C294.294 490.764 296.72 495.239 296.72 500.827C296.72 506.415 294.294 510.83 289.422 510.83ZM286.618 481.438H292.007L298.112 472.349H291.072L286.618 481.438ZM314.866 485.455H307.23L316.298 500.727L306.991 516H314.628L321.031 505.003L327.494 516H335.071L325.705 500.727L334.912 485.455H327.295L321.031 496.73L314.866 485.455ZM340.48 516H347.679V485.455H340.48V516ZM344.099 481.119C346.386 481.119 348.256 479.369 348.256 477.222C348.256 475.054 346.386 473.304 344.099 473.304C341.793 473.304 339.923 475.054 339.923 477.222C339.923 479.369 341.793 481.119 344.099 481.119ZM355.082 516H362.281V497.426C362.281 493.668 364.786 491.122 367.888 491.122C370.931 491.122 373.019 493.17 373.019 496.312V516H380.079V496.949C380.079 493.509 382.127 491.122 385.607 491.122C388.511 491.122 390.817 492.832 390.817 496.611V516H398.036V495.497C398.036 488.676 394.099 485.057 388.491 485.057C384.056 485.057 380.675 487.244 379.323 490.645H379.005C377.832 487.185 374.869 485.057 370.752 485.057C366.656 485.057 363.593 487.165 362.32 490.645H361.962V485.455H355.082V516ZM418.663 516.597C427.612 516.597 433.3 510.293 433.3 500.847C433.3 491.381 427.612 485.057 418.663 485.057C409.714 485.057 404.027 491.381 404.027 500.847C404.027 510.293 409.714 516.597 418.663 516.597ZM418.703 510.83C413.751 510.83 411.325 506.415 411.325 500.827C411.325 495.239 413.751 490.764 418.703 490.764C423.575 490.764 426.001 495.239 426.001 500.827C426.001 506.415 423.575 510.83 418.703 510.83ZM460.499 475.273H453.3V516H460.499V475.273ZM481.425 516.597C488.544 516.597 493.436 513.116 494.709 507.807L487.987 507.051C487.013 509.636 484.626 510.989 481.524 510.989C476.871 510.989 473.788 507.926 473.729 502.696H495.007V500.489C495.007 489.77 488.564 485.057 481.047 485.057C472.297 485.057 466.589 491.48 466.589 500.906C466.589 510.491 472.217 516.597 481.425 516.597ZM473.749 497.844C473.967 493.946 476.851 490.665 481.146 490.665C485.283 490.665 488.067 493.688 488.107 497.844H473.749ZM527.506 485.455H519.85L512.81 508.145H512.492L505.472 485.455H497.796L508.674 516H516.629L527.506 485.455ZM544.972 516.597C552.091 516.597 556.983 513.116 558.256 507.807L551.534 507.051C550.56 509.636 548.173 510.989 545.071 510.989C540.418 510.989 537.335 507.926 537.276 502.696H558.554V500.489C558.554 489.77 552.111 485.057 544.594 485.057C535.844 485.057 530.136 491.48 530.136 500.906C530.136 510.491 535.764 516.597 544.972 516.597ZM537.295 497.844C537.514 493.946 540.398 490.665 544.693 490.665C548.83 490.665 551.614 493.688 551.653 497.844H537.295ZM571.843 475.273H564.644V516H571.843V475.273Z" fill="#2E384D"/>
<path fill-rule="evenodd" clip-rule="evenodd" d="M510.258 144.608C509.828 163.799 523.477 172.851 523.477 172.851C523.477 172.851 537.763 162.425 538.179 143.725C538.603 124.992 522.903 114 522.903 114C522.903 114 510.677 125.414 510.258 144.608ZM484.522 190.242C490.165 208.074 506.771 213.989 506.771 213.989C506.771 213.989 517.363 201.396 511.588 183.092C505.789 164.794 490.893 157.366 490.893 157.366C490.893 157.366 478.89 172.413 484.522 190.242ZM540.745 181.349C529.773 197.108 536.119 212.274 536.119 212.274C536.119 212.274 553.75 211.529 564.42 196.149C575.124 180.779 568.172 162.88 568.172 162.88C568.172 162.88 551.709 165.577 540.745 181.349ZM499.649 233.655C502.995 252.559 490.861 263.679 490.861 263.679C490.861 263.679 475.156 255.634 471.888 237.222C468.659 218.798 482.498 205.445 482.498 205.445C482.498 205.445 496.299 214.762 499.649 233.655ZM472.064 266.671C470.5 247.513 457.647 236.94 457.647 236.94C457.647 236.94 442.611 248.935 444.134 267.587C445.657 286.239 460.505 295.73 460.505 295.73C460.505 295.73 473.619 285.816 472.064 266.671ZM420.754 325.563C420.754 325.563 409.254 312.18 413.151 293.857C417.059 275.536 434.905 268.386 434.905 268.386C434.905 268.386 444.153 282.24 440.162 301.045C436.16 319.847 420.754 325.563 420.754 325.563ZM525.838 250.579C525.838 250.579 524.257 234.199 539.342 222.371C554.463 210.54 570.964 212.819 570.964 212.819C570.964 212.819 572.353 232.013 557.618 243.546C542.879 255.089 525.838 250.579 525.838 250.579ZM522.27 262.007C504.93 270.202 502.848 286.534 502.848 286.534C502.848 286.534 518.471 294.71 535.371 286.752C552.272 278.794 555.177 259.746 555.177 259.746C555.177 259.746 539.615 253.838 522.27 262.007ZM475.153 313.942C475.153 313.942 482.058 298.983 501.037 296.452C520.04 293.916 533.057 304.273 533.057 304.273C533.057 304.273 524.543 321.55 506.05 324.022C487.543 326.502 475.153 313.942 475.153 313.942ZM494.11 336.832C494.11 336.832 482.383 324.992 463.249 325.217C444.122 325.456 435.519 339.478 435.519 339.478C435.519 339.478 446.311 353.439 464.962 353.226C483.626 352.958 494.11 336.832 494.11 336.832ZM518.75 183.096L527.733 181.312C527.916 182.292 545.312 279.986 404.588 347.55L400.684 339.3C534.634 274.96 519.47 186.803 518.75 183.096ZM217.258 182.121C228.23 197.88 221.884 213.046 221.884 213.046C221.884 213.046 204.253 212.3 193.583 196.921C182.879 181.551 189.831 163.652 189.831 163.652C189.831 163.652 206.294 166.349 217.258 182.121ZM251.23 214.761C251.23 214.761 267.836 208.846 273.479 191.014C279.111 173.185 267.108 158.138 267.108 158.138C267.108 158.138 252.212 165.566 246.413 183.864C240.638 202.168 251.23 214.761 251.23 214.761ZM267.14 264.45C267.14 264.45 255.006 253.331 258.352 234.427C261.702 215.534 275.503 206.217 275.503 206.217C275.503 206.217 289.342 219.57 286.113 237.994C282.845 256.405 267.14 264.45 267.14 264.45ZM300.357 237.712C300.357 237.712 287.504 248.285 285.94 267.443C284.385 286.588 297.499 296.502 297.499 296.502C297.499 296.502 312.347 287.011 313.87 268.359C315.393 249.706 300.357 237.712 300.357 237.712ZM344.85 294.628C348.747 312.951 337.247 326.335 337.247 326.335C337.247 326.335 321.841 320.619 317.839 301.817C313.848 283.012 323.096 269.157 323.096 269.157C323.096 269.157 340.942 276.308 344.85 294.628ZM234.522 173.623C234.522 173.623 248.171 164.571 247.741 145.38C247.322 126.185 235.096 114.772 235.096 114.772C235.096 114.772 219.396 125.764 219.82 144.497C220.236 163.197 234.522 173.623 234.522 173.623ZM218.657 223.142C233.742 234.97 232.161 251.35 232.161 251.35C232.161 251.35 215.12 255.861 200.381 244.317C185.646 232.785 187.035 213.59 187.035 213.59C187.035 213.59 203.536 211.312 218.657 223.142ZM255.153 287.305C255.153 287.305 253.071 270.973 235.731 262.779C218.386 254.61 202.824 260.518 202.824 260.518C202.824 260.518 205.729 279.566 222.63 287.524C239.53 295.482 255.153 287.305 255.153 287.305ZM256.967 297.223C275.946 299.755 282.851 314.714 282.851 314.714C282.851 314.714 270.461 327.274 251.954 324.794C233.461 322.321 224.947 305.044 224.947 305.044C224.947 305.044 237.964 294.687 256.967 297.223ZM294.752 325.989C275.618 325.764 263.891 337.604 263.891 337.604C263.891 337.604 274.374 353.729 293.039 353.997C311.69 354.211 322.482 340.25 322.482 340.25C322.482 340.25 313.879 326.228 294.752 325.989ZM230.269 182.083L239.252 183.868C238.532 187.575 223.368 275.732 357.318 340.072L353.414 348.322C212.69 280.758 230.086 183.064 230.269 182.083Z" fill="url(#paint0_linear)"/>
<g filter="url(#filter0_d)">
<path d="M314.153 121.414H269.919L214.816 156.302V198.037L265.789 166.084H267.093V344H314.153V121.414ZM454.329 348.891C510.302 348.891 544.103 306.286 544.211 232.924C544.32 160.106 510.084 118.371 454.329 118.371C398.465 118.371 364.556 159.997 364.447 232.924C364.23 306.069 398.248 348.782 454.329 348.891ZM454.329 309.873C428.788 309.873 412.268 284.224 412.377 232.924C412.486 182.386 428.897 156.954 454.329 156.954C479.653 156.954 496.173 182.386 496.173 232.924C496.281 284.224 479.761 309.873 454.329 309.873Z" fill="#5965E0"/>
</g>
<path d="M733.798 191H752.946V187.236H739.849V187.023L745.631 180.972C750.957 175.588 752.477 173.017 752.477 169.764C752.477 165.091 748.67 161.511 743.188 161.511C737.747 161.511 733.77 165.034 733.77 170.347H737.96C737.946 167.222 739.963 165.176 743.102 165.176C746.057 165.176 748.301 166.994 748.301 169.892C748.301 172.463 746.767 174.31 743.642 177.619L733.798 187.818V191ZM758.33 191H777.477V187.236H764.381V187.023L770.162 180.972C775.489 175.588 777.009 173.017 777.009 169.764C777.009 165.091 773.202 161.511 767.719 161.511C762.278 161.511 758.301 165.034 758.301 170.347H762.491C762.477 167.222 764.494 165.176 767.634 165.176C770.588 165.176 772.832 166.994 772.832 169.892C772.832 172.463 771.298 174.31 768.173 177.619L758.33 187.818V191Z" fill="#5965E0"/>
<path d="M802.694 191.44C807.85 191.44 811.188 188.344 811.657 184.097H807.523C806.984 186.455 805.151 187.847 802.722 187.847C799.129 187.847 796.813 184.849 796.813 180.091C796.813 175.418 799.171 172.477 802.722 172.477C805.421 172.477 807.069 174.182 807.523 176.227H811.657C811.202 171.824 807.609 168.898 802.651 168.898C796.501 168.898 792.523 173.528 792.523 180.19C792.523 186.767 796.359 191.44 802.694 191.44ZM825.389 191.44C831.54 191.44 835.56 186.938 835.56 180.19C835.56 173.401 831.54 168.898 825.389 168.898C819.239 168.898 815.219 173.401 815.219 180.19C815.219 186.938 819.239 191.44 825.389 191.44ZM825.403 187.875C821.384 187.875 819.509 184.366 819.509 180.176C819.509 176 821.384 172.449 825.403 172.449C829.395 172.449 831.27 176 831.27 180.176C831.27 184.366 829.395 187.875 825.403 187.875ZM840.3 191H844.548V177.548C844.548 174.608 846.607 172.562 849.022 172.562C851.38 172.562 853.013 174.125 853.013 176.497V191H857.246V177.094C857.246 174.466 858.852 172.562 861.621 172.562C863.866 172.562 865.712 173.812 865.712 176.767V191H869.96V176.369C869.96 171.384 867.175 168.898 863.227 168.898C860.087 168.898 857.729 170.403 856.678 172.733H856.451C855.499 170.347 853.496 168.898 850.585 168.898C847.701 168.898 845.556 170.332 844.647 172.733H844.377V169.182H840.3V191ZM875.652 199.182H879.899V187.605H880.155C880.922 188.997 882.484 191.426 886.462 191.426C891.746 191.426 895.581 187.193 895.581 180.134C895.581 173.06 891.689 168.898 886.419 168.898C882.371 168.898 880.908 171.369 880.155 172.719H879.8V169.182H875.652V199.182ZM879.814 180.091C879.814 175.531 881.803 172.506 885.51 172.506C889.359 172.506 891.291 175.759 891.291 180.091C891.291 184.466 889.303 187.804 885.51 187.804C881.859 187.804 879.814 184.679 879.814 180.091ZM904.587 161.909H900.339V191H904.587V161.909ZM919.704 191.44C924.462 191.44 927.829 189.097 928.795 185.545L924.775 184.821C924.008 186.881 922.161 187.932 919.746 187.932C916.11 187.932 913.667 185.574 913.553 181.369H929.065V179.864C929.065 171.98 924.349 168.898 919.406 168.898C913.326 168.898 909.32 173.528 909.32 180.233C909.32 187.009 913.269 191.44 919.704 191.44ZM913.567 178.188C913.738 175.091 915.982 172.406 919.434 172.406C922.729 172.406 924.888 174.849 924.903 178.188H913.567ZM943.962 169.182H939.487V163.955H935.24V169.182H932.044V172.591H935.24V185.474C935.226 189.438 938.251 191.355 941.604 191.284C942.953 191.27 943.862 191.014 944.359 190.83L943.592 187.321C943.308 187.378 942.783 187.506 942.101 187.506C940.723 187.506 939.487 187.051 939.487 184.594V172.591H943.962V169.182ZM955.009 191.483C958.617 191.483 960.648 189.651 961.458 188.017H961.629V191H965.776V176.511C965.776 170.162 960.776 168.898 957.31 168.898C953.362 168.898 949.725 170.489 948.305 174.466L952.296 175.375C952.921 173.827 954.512 172.335 957.367 172.335C960.109 172.335 961.515 173.77 961.515 176.241V176.341C961.515 177.889 959.924 177.861 956.004 178.315C951.87 178.798 947.637 179.878 947.637 184.835C947.637 189.125 950.862 191.483 955.009 191.483ZM955.933 188.074C953.532 188.074 951.799 186.994 951.799 184.892C951.799 182.619 953.816 181.81 956.273 181.483C957.651 181.298 960.918 180.929 961.529 180.318V183.131C961.529 185.716 959.469 188.074 955.933 188.074ZM979.601 191.426C983.578 191.426 985.141 188.997 985.908 187.605H986.263V191H990.411V161.909H986.163V172.719H985.908C985.141 171.369 983.692 168.898 979.629 168.898C974.359 168.898 970.482 173.06 970.482 180.134C970.482 187.193 974.303 191.426 979.601 191.426ZM980.538 187.804C976.746 187.804 974.771 184.466 974.771 180.091C974.771 175.759 976.703 172.506 980.538 172.506C984.246 172.506 986.234 175.531 986.234 180.091C986.234 184.679 984.203 187.804 980.538 187.804ZM1005.66 191.44C1011.81 191.44 1015.83 186.938 1015.83 180.19C1015.83 173.401 1011.81 168.898 1005.66 168.898C999.512 168.898 995.492 173.401 995.492 180.19C995.492 186.938 999.512 191.44 1005.66 191.44ZM1005.68 187.875C1001.66 187.875 999.782 184.366 999.782 180.176C999.782 176 1001.66 172.449 1005.68 172.449C1009.67 172.449 1011.54 176 1011.54 180.176C1011.54 184.366 1009.67 187.875 1005.68 187.875ZM1036.92 174.509C1036.04 171.114 1033.39 168.898 1028.67 168.898C1023.74 168.898 1020.25 171.497 1020.25 175.361C1020.25 178.457 1022.12 180.517 1026.21 181.426L1029.91 182.236C1032.01 182.705 1032.99 183.642 1032.99 185.006C1032.99 186.696 1031.18 188.017 1028.4 188.017C1025.86 188.017 1024.22 186.923 1023.71 184.778L1019.61 185.403C1020.32 189.267 1023.53 191.44 1028.43 191.44C1033.7 191.44 1037.35 188.642 1037.35 184.693C1037.35 181.611 1035.39 179.707 1031.38 178.784L1027.92 177.989C1025.52 177.42 1024.48 176.611 1024.49 175.134C1024.48 173.457 1026.3 172.264 1028.71 172.264C1031.36 172.264 1032.58 173.727 1033.07 175.19L1036.92 174.509Z" fill="#666666"/>
<path opacity="0.5" d="M738.705 136C744.023 136 747.244 132.71 747.244 127.256C747.244 121.818 744.023 118.545 738.756 118.545H732.517V136H738.705ZM736.207 132.838V121.707H738.56C741.832 121.707 743.562 123.378 743.562 127.256C743.562 131.151 741.832 132.838 738.551 132.838H736.207ZM749.978 136H761.773V132.957H753.668V128.79H761.134V125.747H753.668V121.588H761.739V118.545H749.978V136ZM774.142 123.565H777.679C777.628 120.455 775.071 118.307 771.185 118.307C767.358 118.307 764.554 120.42 764.571 123.591C764.562 126.165 766.378 127.639 769.327 128.347L771.227 128.824C773.128 129.284 774.185 129.83 774.193 131.006C774.185 132.284 772.974 133.153 771.099 133.153C769.182 133.153 767.801 132.267 767.682 130.52H764.111C764.205 134.295 766.906 136.247 771.142 136.247C775.403 136.247 777.909 134.21 777.918 131.014C777.909 128.108 775.719 126.565 772.685 125.884L771.116 125.509C769.599 125.159 768.33 124.597 768.355 123.344C768.355 122.219 769.352 121.392 771.159 121.392C772.923 121.392 774.006 122.193 774.142 123.565ZM783.01 136L784.305 132.02H790.604L791.899 136H795.854L789.837 118.545H785.081L779.055 136H783.01ZM785.243 129.139L787.391 122.534H787.527L789.675 129.139H785.243ZM797.955 136H801.645V128.79H808.744V125.747H801.645V121.588H809.511V118.545H797.955V136ZM815.684 118.545H811.994V136H815.684V118.545ZM834.76 127.273C834.76 121.562 831.214 118.307 826.587 118.307C821.933 118.307 818.413 121.562 818.413 127.273C818.413 132.957 821.933 136.239 826.587 136.239C831.214 136.239 834.76 132.983 834.76 127.273ZM831.018 127.273C831.018 130.972 829.263 132.974 826.587 132.974C823.902 132.974 822.155 130.972 822.155 127.273C822.155 123.574 823.902 121.571 826.587 121.571C829.263 121.571 831.018 123.574 831.018 127.273ZM846.962 123.565H850.499C850.448 120.455 847.891 118.307 844.005 118.307C840.178 118.307 837.374 120.42 837.391 123.591C837.383 126.165 839.198 127.639 842.147 128.347L844.048 128.824C845.948 129.284 847.005 129.83 847.013 131.006C847.005 132.284 845.795 133.153 843.92 133.153C842.002 133.153 840.621 132.267 840.502 130.52H836.931C837.025 134.295 839.727 136.247 843.962 136.247C848.224 136.247 850.729 134.21 850.738 131.014C850.729 128.108 848.539 126.565 845.505 125.884L843.937 125.509C842.42 125.159 841.15 124.597 841.175 123.344C841.175 122.219 842.173 121.392 843.979 121.392C845.744 121.392 846.826 122.193 846.962 123.565Z" fill="#666666"/>
<line x1="733" y1="231.25" x2="1073" y2="231.25" stroke="#DCDDE0" stroke-width="1.5"/>
<line x1="733" y1="382.25" x2="1073" y2="382.25" stroke="#DCDDE0" stroke-width="1.5"/>
<path d="M744.835 312.909H740.56L733.301 317.653V321.858L740.261 317.312H740.432V342H744.835V312.909ZM762.832 342.398C768.77 342.398 773.131 338.847 773.116 334.017C773.131 330.338 770.901 327.696 767.037 327.099V326.872C770.077 326.091 772.051 323.705 772.037 320.438C772.051 316.162 768.543 312.511 762.946 312.511C757.605 312.511 753.315 315.736 753.173 320.466H757.42C757.52 317.795 760.034 316.176 762.889 316.176C765.858 316.176 767.804 317.98 767.79 320.665C767.804 323.477 765.545 325.324 762.321 325.324H759.864V328.903H762.321C766.355 328.903 768.685 330.949 768.685 333.875C768.685 336.702 766.227 338.619 762.804 338.619C759.651 338.619 757.193 337 757.023 334.415H752.562C752.747 339.159 756.952 342.398 762.832 342.398ZM778.486 342H797.634V338.236H784.537V338.023L790.318 331.972C795.645 326.588 797.165 324.017 797.165 320.764C797.165 316.091 793.358 312.511 787.875 312.511C782.435 312.511 778.457 316.034 778.457 321.347H782.648C782.634 318.222 784.651 316.176 787.79 316.176C790.744 316.176 792.989 317.994 792.989 320.892C792.989 323.463 791.455 325.31 788.33 328.619L778.486 338.818V342ZM813.145 342.483C819.864 342.483 823.798 337 823.798 327.469C823.798 318.009 819.807 312.511 813.145 312.511C806.469 312.511 802.491 317.994 802.477 327.469C802.477 336.986 806.412 342.469 813.145 342.483ZM813.145 338.69C809.21 338.69 806.838 334.741 806.838 327.469C806.852 320.224 809.224 316.233 813.145 316.233C817.051 316.233 819.438 320.224 819.438 327.469C819.438 334.741 817.065 338.69 813.145 338.69ZM838.965 342.483C845.684 342.483 849.619 337 849.619 327.469C849.619 318.009 845.627 312.511 838.965 312.511C832.289 312.511 828.312 317.994 828.298 327.469C828.298 336.986 832.232 342.469 838.965 342.483ZM838.965 338.69C835.031 338.69 832.658 334.741 832.658 327.469C832.673 320.224 835.045 316.233 838.965 316.233C842.871 316.233 845.258 320.224 845.258 327.469C845.258 334.741 842.886 338.69 838.965 338.69ZM864.786 342.483C871.504 342.483 875.439 337 875.439 327.469C875.439 318.009 871.447 312.511 864.786 312.511C858.109 312.511 854.132 317.994 854.118 327.469C854.118 336.986 858.053 342.469 864.786 342.483ZM864.786 338.69C860.851 338.69 858.479 334.741 858.479 327.469C858.493 320.224 860.865 316.233 864.786 316.233C868.692 316.233 871.078 320.224 871.078 327.469C871.078 334.741 868.706 338.69 864.786 338.69Z" fill="#5965E0"/>
<path d="M894.473 320.182H889.814L896.518 331.091L889.729 342H894.388L899.288 333.847L904.203 342H908.848L901.987 331.091L908.791 320.182H904.146L899.288 328.676L894.473 320.182ZM913.152 350.182H917.399V338.605H917.655C918.422 339.997 919.984 342.426 923.962 342.426C929.246 342.426 933.081 338.193 933.081 331.134C933.081 324.06 929.189 319.898 923.919 319.898C919.871 319.898 918.408 322.369 917.655 323.719H917.3V320.182H913.152V350.182ZM917.314 331.091C917.314 326.531 919.303 323.506 923.01 323.506C926.859 323.506 928.791 326.759 928.791 331.091C928.791 335.466 926.803 338.804 923.01 338.804C919.359 338.804 917.314 335.679 917.314 331.091Z" fill="#666666"/>
<path opacity="0.5" d="M732.517 287H744.312V283.957H736.207V279.79H743.673V276.747H736.207V272.588H744.278V269.545H732.517V287ZM750.673 269.545H746.488L751.849 278.273L746.386 287H750.613L754.192 281.043H754.329L757.908 287H762.153L756.707 278.273L762.033 269.545H757.866L754.329 275.494H754.192L750.673 269.545ZM764.369 287H768.059V281.341H771.161C775.175 281.341 777.511 278.946 777.511 275.46C777.511 271.991 775.218 269.545 771.255 269.545H764.369V287ZM768.059 278.384V272.562H770.548C772.678 272.562 773.71 273.722 773.71 275.46C773.71 277.19 772.678 278.384 770.565 278.384H768.059ZM779.908 287H791.703V283.957H783.598V279.79H791.064V276.747H783.598V272.588H791.669V269.545H779.908V287ZM794.603 287H798.293V280.812H800.987L804.293 287H808.367L804.66 280.216C806.646 279.364 807.745 277.634 807.745 275.247C807.745 271.778 805.452 269.545 801.489 269.545H794.603V287ZM798.293 277.847V272.562H800.782C802.913 272.562 803.944 273.509 803.944 275.247C803.944 276.977 802.913 277.847 800.799 277.847H798.293ZM814.043 269.545H810.353V287H814.043V269.545ZM817.08 287H828.875V283.957H820.77V279.79H828.236V276.747H820.77V272.588H828.841V269.545H817.08V287ZM821.273 267.994L822.986 265.915L824.699 267.994H827.793V267.875L824.332 264.125H821.631L818.179 267.875V267.994H821.273ZM846.374 269.545H842.701V280.523H842.548L835.013 269.545H831.775V287H835.465V276.014H835.593L843.187 287H846.374V269.545ZM864.824 275.656C864.338 271.625 861.287 269.307 857.247 269.307C852.636 269.307 849.116 272.562 849.116 278.273C849.116 283.966 852.577 287.239 857.247 287.239C861.722 287.239 864.423 284.264 864.824 281.051L861.091 281.034C860.741 282.901 859.276 283.974 857.307 283.974C854.656 283.974 852.858 282.006 852.858 278.273C852.858 274.642 854.631 272.571 857.332 272.571C859.352 272.571 860.81 273.739 861.091 275.656H864.824ZM871.161 269.545H867.47V287H871.161V269.545ZM877.205 287L878.501 283.02H884.799L886.094 287H890.049L884.032 269.545H879.276L873.251 287H877.205ZM879.438 280.139L881.586 273.534H881.722L883.87 280.139H879.438Z" fill="#666666"/>
<g clip-path="url(#clip0)">
<path d="M838.307 489.049L834.685 505.682H825.249L828.871 489.049C829.155 487.741 828.99 487.5 827.653 487.5H824.247C822.918 487.5 822.64 487.741 822.359 489.016C822.359 489.016 822.359 489.038 822.359 489.049L818.737 505.682H809.292L812.917 489.049C813.201 487.741 813.036 487.5 811.696 487.5H808.29C806.95 487.5 806.68 487.744 806.396 489.049L802.771 505.682H793.335L798.896 480.149H806.561L807.776 482.343C808.475 481.625 809.321 481.058 810.259 480.68C811.197 480.302 812.206 480.121 813.221 480.149H815.177C818.867 480.149 821.357 481.714 822.248 484.359C823.898 481.418 826.288 480.149 829.175 480.149H831.134C836.678 480.149 839.497 483.642 838.307 489.049Z" fill="#5965E0"/>
<path d="M867.084 489.049L865.401 496.782C864.223 502.189 859.879 505.682 854.329 505.682H847.181C841.64 505.682 838.821 502.186 839.999 496.78L841.682 489.049C842.858 483.642 847.201 480.149 852.754 480.149H859.913C865.443 480.149 868.265 483.642 867.084 489.049ZM857.639 489.049C857.923 487.741 857.759 487.5 856.422 487.5H853.015C851.675 487.5 851.405 487.744 851.122 489.049L849.435 496.78C849.151 498.087 849.319 498.328 850.656 498.328H854.063C855.4 498.328 855.672 498.084 855.956 496.78L857.639 489.049Z" fill="#5965E0"/>
<path d="M925.976 487.016C925.631 488.467 924.797 489.764 923.608 490.7L918.802 494.577C917.65 495.523 916.2 496.055 914.695 496.084H908.04L907.89 496.768C907.606 498.076 907.771 498.317 909.111 498.317H923.509L921.908 505.671H905.625C900.083 505.671 897.264 502.175 898.442 496.768L900.126 489.038C901.304 483.631 905.647 480.138 911.197 480.138H918.362C923.89 480.149 926.748 483.459 925.976 487.016ZM916.091 489.049C916.375 487.741 916.211 487.5 914.871 487.5H911.464C910.13 487.498 909.846 487.744 909.562 489.049L908.994 491.711H914.615C914.867 491.7 915.109 491.61 915.304 491.454C915.498 491.297 915.635 491.083 915.694 490.844L916.091 489.049Z" fill="#5965E0"/>
<path d="M936.583 501.347C936.061 503.743 934.122 505.685 931.19 505.685C928.257 505.685 927.167 503.746 927.689 501.347C928.212 498.948 930.151 497.012 933.083 497.012C936.016 497.012 937.097 498.948 936.583 501.347Z" fill="#4CD62B"/>
<path d="M956.83 480.149L955.229 487.498L951.255 505.679H941.821L945.796 487.498H941.086L942.69 480.146L956.83 480.149ZM949.824 475.382C948.189 473.609 948.688 470.568 950.934 468.593C953.179 466.618 956.328 466.457 957.971 468.233C959.615 470.008 959.107 473.05 956.861 475.025C954.616 476.999 951.462 477.16 949.824 475.382Z" fill="#5965E0"/>
<path d="M971.972 483.825L969.15 496.78C968.866 498.087 969.031 498.328 970.368 498.328H976.236L974.635 505.682H966.888C961.346 505.682 958.525 502.186 959.703 496.78L962.524 483.825H958.956L960.557 476.47H964.134L965.446 470.449H974.89L973.579 476.47H981.005L979.395 483.825H971.972Z" fill="#5965E0"/>
<path d="M756.509 470.745H768.483L758.522 517H746.548L756.509 470.745Z" fill="#5965E0"/>
<path d="M774.079 470.745H786.053L778.291 506.987H766.314L774.079 470.745Z" fill="#5965E0"/>
<path d="M738.764 470.745H750.738L742.977 506.987H731L738.764 470.745Z" fill="#5965E0"/>
<path d="M902.026 480.149L884.531 505.682H874.879L868.497 480.149H878.833L881.612 496.915L891.69 480.163L902.026 480.149Z" fill="#5965E0"/>
</g>
<defs>
<filter id="filter0_d" x="198.815" y="112.371" width="361.396" height="262.52" filterUnits="userSpaceOnUse" color-interpolation-filters="sRGB">
<feFlood flood-opacity="0" result="BackgroundImageFix"/>
<feColorMatrix in="SourceAlpha" type="matrix" values="0 0 0 0 0 0 0 0 0 0 0 0 0 0 0 0 0 0 127 0"/>
<feOffset dy="10"/>
<feGaussianBlur stdDeviation="8"/>
<feColorMatrix type="matrix" values="0 0 0 0 0.34902 0 0 0 0 0.396078 0 0 0 0 0.878431 0 0 0 0.3 0"/>
<feBlend mode="normal" in2="BackgroundImageFix" result="effect1_dropShadow"/>
<feBlend mode="normal" in="SourceGraphic" in2="effect1_dropShadow" result="shape"/>
</filter>
<linearGradient id="paint0_linear" x1="383.961" y1="114" x2="383.961" y2="354" gradientUnits="userSpaceOnUse">
<stop stop-color="#DCDDE0"/>
<stop offset="1" stop-color="#DCDDE0" stop-opacity="0"/>
</linearGradient>
<clipPath id="clip0">
<rect width="250" height="50" fill="white" transform="translate(731 467)"/>
</clipPath>
</defs>
</svg>
